<svg width="160" height="470" viewBox="0 0 160 470" fill="none" xmlns="http://www.w3.org/2000/svg">
<path d="M82 1H159L78 54H1L82 1Z" fill="#FFF9EB"/>
<path d="M158.607 2.08892C159.067 1.78402 159.193 1.16355 158.888 0.703056C158.584 0.24256 157.963 0.116431 157.503 0.421333L158.607 2.08892ZM77.5521 55.7569L158.607 2.08892L157.503 0.421333L76.4479 54.0893L77.5521 55.7569Z" fill="#0F0F0F"/>
<path d="M83.0511 2.33442C83.512 2.03004 83.6388 1.40971 83.3344 0.94887C83.03 0.488033 82.4097 0.3612 81.9489 0.665579L83.0511 2.33442ZM2.05113 55.8344L83.0511 2.33442L81.9489 0.665579L0.948871 54.1656L2.05113 55.8344Z" fill="#492F2F"/>
<path d="M78 54.0001L159 1.00006V383L78 470V54.0001Z" fill="#0F0F0F"/>
<rect x="1" y="54.0001" width="77" height="416" fill="#2F3049"/>
</svg>
