<svg width="50" height="29" viewBox="0 0 50 29" fill="none" xmlns="http://www.w3.org/2000/svg">
<path d="M48.6845 1.28793C48.2703 0.879663 47.7782 0.555757 47.2365 0.334757C46.6948 0.113757 46.114 0 45.5276 0C44.9411 0 44.3604 0.113757 43.8187 0.334757C43.277 0.555757 42.7849 0.879663 42.3706 1.28793L24.9961 18.3755L7.62159 1.28793C6.78431 0.464477 5.64872 0.0018648 4.46463 0.0018648C3.28053 0.0018648 2.14493 0.464477 1.30765 1.28793C0.470371 2.11139 0 3.22823 0 4.39277C0 5.55731 0.470371 6.67415 1.30765 7.4976L21.8615 27.7121C22.2758 28.1203 22.7679 28.4442 23.3096 28.6652C23.8513 28.8862 24.432 29 25.0185 29C25.605 29 26.1857 28.8862 26.7274 28.6652C27.2691 28.4442 27.7612 28.1203 28.1755 27.7121L48.7293 7.4976C50.431 5.82408 50.4309 3.0055 48.6845 1.28793Z" fill="white"/>
</svg>
