<svg width="100" height="97" viewBox="0 0 100 97" fill="none" xmlns="http://www.w3.org/2000/svg">
<path d="M77.9411 4.71617L77.9413 4.71707L82.2153 20.6285L95.0371 68.3627L99.3104 84.272C99.3105 84.2721 99.3105 84.2723 99.3106 84.2724C99.6943 85.7278 99.4902 87.2757 98.7421 88.5818L98.7411 88.5836C98.3726 89.2333 97.8774 89.8023 97.2848 90.2569C96.6922 90.7114 96.0143 91.0424 95.2914 91.2299L95.2873 91.231L79.3759 95.505L79.3748 95.5053C78.8985 95.6344 78.4068 95.6978 77.9133 95.6938L77.9057 95.6938C76.6534 95.7027 75.4338 95.2936 74.4402 94.5312C73.4466 93.7689 72.7356 92.6969 72.4199 91.4849L72.4189 91.4812L68.145 75.5698L55.3238 27.838L55.3232 27.8356L54.0365 22.9462L53.053 23.0734V90.0146C53.053 91.5209 52.4546 92.9654 51.3896 94.0304C50.3245 95.0955 48.88 95.6938 47.3738 95.6938H30.8964C29.4969 95.6926 28.148 95.1699 27.1131 94.2278L26.7765 93.9214L26.4399 94.2278C25.405 95.1699 24.0561 95.6926 22.6566 95.6938H6.17919C4.67297 95.6938 3.22845 95.0955 2.1634 94.0304C1.09834 92.9654 0.5 91.5209 0.5 90.0146V7.62547C0.5 6.11925 1.09834 4.67473 2.1634 3.60967C3.22845 2.54462 4.67297 1.94628 6.17919 1.94628H22.6568C24.0563 1.94759 25.405 2.47026 26.4399 3.41231L26.7765 3.7187L27.1131 3.41231C28.1479 2.47026 29.4967 1.94759 30.8961 1.94628H47.3733C48.5024 1.94867 49.6052 2.28758 50.5408 2.91974C51.4765 3.55199 52.2025 4.44887 52.626 5.49577L52.856 6.0644L53.3666 5.72447C53.8865 5.37835 54.4613 5.1229 55.0665 4.96895L55.0665 4.96899L55.073 4.96726L70.9841 0.69341C71.705 0.500287 72.457 0.451167 73.1969 0.548858C73.9369 0.646549 74.6503 0.889135 75.2964 1.26274C75.9425 1.63635 76.5087 2.13366 76.9625 2.72622C77.4163 3.31879 77.7488 3.99499 77.9411 4.71617ZM59.2416 28.4094L58.7594 28.5393L58.8888 29.0217L70.6292 72.791L70.7589 73.2744L71.2422 73.1442L91.1186 67.7889L91.6009 67.659L91.4715 67.1766L79.731 23.4073L79.6013 22.9239L79.118 23.0541L59.2416 28.4094ZM49.4335 71.9771H49.9335V71.4771V7.62547C49.9335 6.94658 49.6638 6.29551 49.1838 5.81546C48.7037 5.33542 48.0527 5.06574 47.3738 5.06574H30.8959C30.2171 5.06574 29.566 5.33542 29.0859 5.81546C28.6059 6.29551 28.3362 6.94658 28.3362 7.62547V71.4771V71.9771H28.8362H49.4335ZM24.7168 22.5436H25.2168V22.0436V7.62547C25.2168 6.94658 24.9471 6.29551 24.467 5.81546C23.987 5.33542 23.3359 5.06574 22.657 5.06574H6.17919C5.50031 5.06574 4.84923 5.33542 4.36919 5.81546C3.88914 6.29551 3.61946 6.94658 3.61946 7.62547V22.0436V22.5436H4.11946H24.7168ZM4.11946 25.663H3.61946V26.163V90.0146C3.61946 90.6935 3.88914 91.3446 4.36919 91.8247C4.84923 92.3047 5.50031 92.5744 6.17919 92.5744H22.657C23.3359 92.5744 23.987 92.3047 24.467 91.8247C24.9471 91.3446 25.2168 90.6935 25.2168 90.0146V26.163V25.663H24.7168H4.11946ZM28.8362 75.0965H28.3362V75.5965V90.0146C28.3362 90.6935 28.6059 91.3446 29.0859 91.8247C29.566 92.3047 30.2171 92.5744 30.8959 92.5744H47.3738C48.0527 92.5744 48.7037 92.3047 49.1838 91.8247C49.6638 91.3446 49.9335 90.6935 49.9335 90.0146V75.5965V75.0965H49.4335H28.8362ZM54.9935 8.41658C54.7324 8.62325 54.5162 8.88078 54.3578 9.17347C54.1763 9.45693 54.0591 9.77682 54.0146 10.1106C53.9697 10.4474 53.9999 10.7899 54.103 11.1136L57.8072 25.0045L57.9357 25.4863L58.4178 25.3592L78.3457 20.1069L78.8318 19.9788L78.701 19.4933L74.942 5.53867L74.9421 5.53866L74.94 5.53127C74.7854 4.99083 74.4573 4.51628 74.0063 4.18087C73.5561 3.84618 73.0086 3.66861 72.4478 3.67542H71.9361H71.8701L71.8064 3.69253L55.8985 7.96554C55.8979 7.9657 55.8972 7.96586 55.8966 7.96602C55.5676 8.05209 55.2601 8.20551 54.9935 8.41658ZM94.4653 88.2318L94.4654 88.232L94.4772 88.2285C95.119 88.039 95.6634 87.6104 95.9982 87.0315C96.1822 86.7464 96.3008 86.4241 96.3457 86.0877C96.3906 85.7509 96.3604 85.4085 96.2573 85.0849L92.5531 71.1427L92.4244 70.6581L91.9401 70.7882L72.0123 76.1435L71.5287 76.2735L71.6594 76.7569L75.4184 90.6601L75.419 90.6624C75.5987 91.3145 76.0244 91.8714 76.6065 92.2159C77.1886 92.5604 77.8816 92.6656 78.5397 92.5094L78.5468 92.5077L78.5539 92.5058L94.4653 88.2318Z" fill="white" stroke="white"/>
</svg>
