<svg width="100" height="100" viewBox="0 0 100 100" fill="none" xmlns="http://www.w3.org/2000/svg">
<path fill-rule="evenodd" clip-rule="evenodd" d="M12.5 15.625C11.6712 15.625 10.8763 15.9542 10.2903 16.5403C9.70424 17.1263 9.375 17.9212 9.375 18.75V25C9.375 25.8288 9.70424 26.6237 10.2903 27.2097C10.8763 27.7958 11.6712 28.125 12.5 28.125H18.75C19.5788 28.125 20.3737 27.7958 20.9597 27.2097C21.5458 26.6237 21.875 25.8288 21.875 25V18.75C21.875 17.9212 21.5458 17.1263 20.9597 16.5403C20.3737 15.9542 19.5788 15.625 18.75 15.625H12.5ZM18.75 18.75H12.5V25H18.75V18.75Z" fill="white"/>
<path d="M31.25 21.875C31.25 21.0462 31.5792 20.2513 32.1653 19.6653C32.7513 19.0792 33.5462 18.75 34.375 18.75H90.625C91.4538 18.75 92.2487 19.0792 92.8347 19.6653C93.4208 20.2513 93.75 21.0462 93.75 21.875C93.75 22.7038 93.4208 23.4987 92.8347 24.0847C92.2487 24.6708 91.4538 25 90.625 25H34.375C33.5462 25 32.7513 24.6708 32.1653 24.0847C31.5792 23.4987 31.25 22.7038 31.25 21.875ZM34.375 43.75C33.5462 43.75 32.7513 44.0792 32.1653 44.6653C31.5792 45.2513 31.25 46.0462 31.25 46.875C31.25 47.7038 31.5792 48.4987 32.1653 49.0847C32.7513 49.6708 33.5462 50 34.375 50H90.625C91.4538 50 92.2487 49.6708 92.8347 49.0847C93.4208 48.4987 93.75 47.7038 93.75 46.875C93.75 46.0462 93.4208 45.2513 92.8347 44.6653C92.2487 44.0792 91.4538 43.75 90.625 43.75H34.375ZM34.375 68.75C33.5462 68.75 32.7513 69.0792 32.1653 69.6653C31.5792 70.2513 31.25 71.0462 31.25 71.875C31.25 72.7038 31.5792 73.4987 32.1653 74.0847C32.7513 74.6708 33.5462 75 34.375 75H90.625C91.4538 75 92.2487 74.6708 92.8347 74.0847C93.4208 73.4987 93.75 72.7038 93.75 71.875C93.75 71.0462 93.4208 70.2513 92.8347 69.6653C92.2487 69.0792 91.4538 68.75 90.625 68.75H34.375Z" fill="white"/>
<path fill-rule="evenodd" clip-rule="evenodd" d="M9.375 43.75C9.375 42.9212 9.70424 42.1263 10.2903 41.5403C10.8763 40.9542 11.6712 40.625 12.5 40.625H18.75C19.5788 40.625 20.3737 40.9542 20.9597 41.5403C21.5458 42.1263 21.875 42.9212 21.875 43.75V50C21.875 50.8288 21.5458 51.6237 20.9597 52.2097C20.3737 52.7958 19.5788 53.125 18.75 53.125H12.5C11.6712 53.125 10.8763 52.7958 10.2903 52.2097C9.70424 51.6237 9.375 50.8288 9.375 50V43.75ZM12.5 43.75H18.75V50H12.5V43.75ZM12.5 65.625C11.6712 65.625 10.8763 65.9542 10.2903 66.5403C9.70424 67.1263 9.375 67.9212 9.375 68.75V75C9.375 75.8288 9.70424 76.6237 10.2903 77.2097C10.8763 77.7958 11.6712 78.125 12.5 78.125H18.75C19.5788 78.125 20.3737 77.7958 20.9597 77.2097C21.5458 76.6237 21.875 75.8288 21.875 75V68.75C21.875 67.9212 21.5458 67.1263 20.9597 66.5403C20.3737 65.9542 19.5788 65.625 18.75 65.625H12.5ZM18.75 68.75H12.5V75H18.75V68.75Z" fill="white"/>
</svg>
