<svg width="100" height="97" viewBox="0 0 100 97" fill="none" xmlns="http://www.w3.org/2000/svg">
<path d="M99.7939 84.1444L95.52 68.233L82.6981 20.4988L78.4242 4.58736C78.215 3.8027 77.8532 3.06696 77.3594 2.42222C76.8657 1.77749 76.2497 1.2364 75.5467 0.829897C74.8437 0.423395 74.0674 0.159451 73.2624 0.0531594C72.4573 -0.053132 71.6391 0.000312157 70.8547 0.210438L54.9433 4.48438C54.2832 4.65226 53.6564 4.93083 53.0895 5.30827C52.6288 4.1692 51.8388 3.19336 50.8207 2.50544C49.8026 1.81753 48.6025 1.44877 47.3738 1.44628H30.8959C29.3721 1.44764 27.9034 2.01675 26.7765 3.04257C25.6496 2.01675 24.1809 1.44764 22.657 1.44628H6.17919C4.54037 1.44628 2.96866 2.0973 1.80984 3.25612C0.651019 4.41494 0 5.98664 0 7.62547V90.0146C0 91.6535 0.651019 93.2252 1.80984 94.384C2.96866 95.5428 4.54037 96.1938 6.17919 96.1938H22.657C24.1809 96.1925 25.6496 95.6234 26.7765 94.5975C27.9034 95.6234 29.3721 96.1925 30.8959 96.1938H47.3738C49.0126 96.1938 50.5843 95.5428 51.7431 94.384C52.9019 93.2252 53.553 91.6535 53.553 90.0146V23.0734L54.8403 27.9653L67.6621 75.6995L71.9361 91.6109C72.2798 92.9306 73.0539 94.0978 74.1358 94.9279C75.2177 95.758 76.5456 96.2035 77.9093 96.1938C78.4483 96.1981 78.9853 96.1289 79.5056 95.9879L95.417 91.7139C96.2047 91.5095 96.9434 91.1489 97.5891 90.6536C98.2348 90.1582 98.7745 89.5382 99.176 88.8303C99.9894 87.4101 100.211 85.7269 99.7939 84.1444V84.1444ZM59.3717 28.8922L79.2481 23.5369L90.9886 67.3061L71.1122 72.6614L59.3717 28.8922ZM30.8959 5.56574H47.3738C47.9201 5.56574 48.444 5.78274 48.8302 6.16902C49.2165 6.55529 49.4335 7.07919 49.4335 7.62547V71.4771H28.8362V7.62547C28.8362 7.07919 29.0532 6.55529 29.4395 6.16902C29.8258 5.78274 30.3497 5.56574 30.8959 5.56574ZM6.17919 5.56574H22.657C23.2033 5.56574 23.7272 5.78274 24.1135 6.16902C24.4997 6.55529 24.7168 7.07919 24.7168 7.62547V22.0436H4.11946V7.62547C4.11946 7.07919 4.33647 6.55529 4.72274 6.16902C5.10901 5.78274 5.63291 5.56574 6.17919 5.56574V5.56574ZM22.657 92.0744H6.17919C5.63291 92.0744 5.10901 91.8574 4.72274 91.4711C4.33647 91.0848 4.11946 90.5609 4.11946 90.0146V26.163H24.7168V90.0146C24.7168 90.5609 24.4997 91.0848 24.1135 91.4711C23.7272 91.8574 23.2033 92.0744 22.657 92.0744ZM47.3738 92.0744H30.8959C30.3497 92.0744 29.8258 91.8574 29.4395 91.4711C29.0532 91.0848 28.8362 90.5609 28.8362 90.0146V75.5965H49.4335V90.0146C49.4335 90.5609 49.2165 91.0848 48.8302 91.4711C48.444 91.8574 47.9201 92.0744 47.3738 92.0744ZM54.7888 9.42773C54.9157 9.18787 55.0911 8.97703 55.3039 8.8086C55.5166 8.64017 55.7621 8.51783 56.0246 8.44936L71.9361 4.17542H72.451C72.9032 4.1693 73.3449 4.31221 73.7079 4.5821C74.0709 4.85199 74.3349 5.23385 74.4592 5.66872L78.2182 19.6234L58.2903 24.8757L54.5828 10.9725C54.4994 10.716 54.4746 10.4441 54.5102 10.1767C54.5459 9.90935 54.6411 9.6534 54.7888 9.42773V9.42773ZM95.5715 86.7706C95.3013 87.244 94.8584 87.5946 94.3356 87.7489L78.4242 92.0229C77.8921 92.1492 77.3318 92.0642 76.8611 91.7857C76.3905 91.5071 76.0463 91.0568 75.901 90.5296L72.142 76.6264L92.0699 71.2711L95.7774 85.2258C95.8609 85.4823 95.8857 85.7542 95.85 86.0216C95.8144 86.289 95.7192 86.5449 95.5715 86.7706V86.7706Z" fill="white"/>
</svg>
