<svg width="60" height="104" viewBox="0 0 60 104" fill="none" xmlns="http://www.w3.org/2000/svg">
<path d="M2.66469 2.73615C1.81999 3.59784 1.14984 4.62136 0.692601 5.74813C0.235359 6.87489 0 8.08278 0 9.30264C0 10.5225 0.235359 11.7304 0.692601 12.8572C1.14984 13.9839 1.81999 15.0074 2.66469 15.8691L38.0184 52.0081L2.66469 88.1471C0.960988 89.8886 0.00385821 92.2507 0.00385821 94.7136C0.00385821 97.1765 0.960988 99.5385 2.66469 101.28C4.36838 103.022 6.67909 104 9.08848 104C11.4979 104 13.8086 103.022 15.5123 101.28L57.3353 58.528C58.18 57.6663 58.8502 56.6428 59.3074 55.5161C59.7646 54.3893 60 53.1814 60 51.9615C60 50.7417 59.7646 49.5338 59.3074 48.407C58.8502 47.2803 58.18 46.2567 57.3353 45.3951L15.5123 2.64301C12.0498 -0.896376 6.21828 -0.896374 2.66469 2.73615Z" fill="#C4C4C4"/>
</svg>
