<svg width="30" height="52" viewBox="0 0 30 52" fill="none" xmlns="http://www.w3.org/2000/svg">
<path d="M1.33234 1.36808C0.909996 1.79892 0.574921 2.31068 0.3463 2.87406C0.117679 3.43745 0 4.04139 0 4.65132C0 5.26125 0.117679 5.86519 0.3463 6.42858C0.574921 6.99196 0.909996 7.50372 1.33234 7.93457L19.0092 26.0041L1.33234 44.0735C0.480494 44.9443 0.00192911 46.1253 0.00192911 47.3568C0.00192911 48.5882 0.480494 49.7693 1.33234 50.64C2.18419 51.5108 3.33955 52 4.54424 52C5.74894 52 6.90429 51.5108 7.75614 50.64L28.6677 29.264C29.09 28.8332 29.4251 28.3214 29.6537 27.758C29.8823 27.1946 30 26.5907 30 25.9808C30 25.3708 29.8823 24.7669 29.6537 24.2035C29.4251 23.6401 29.09 23.1284 28.6677 22.6975L7.75614 1.3215C6.0249 -0.448188 3.10914 -0.448187 1.33234 1.36808Z" fill="#C4C4C4"/>
</svg>
