<svg width="30" height="52" viewBox="0 0 30 52" fill="none" xmlns="http://www.w3.org/2000/svg">
<path d="M28.6677 50.6319C29.09 50.2011 29.4251 49.6893 29.6537 49.1259C29.8823 48.5626 30 47.9586 30 47.3487C30 46.7387 29.8823 46.1348 29.6537 45.5714C29.4251 45.008 29.09 44.4963 28.6677 44.0654L10.9908 25.9959L28.6677 7.92645C29.5195 7.05568 29.9981 5.87467 29.9981 4.64321C29.9981 3.41175 29.5195 2.23073 28.6677 1.35996C27.8158 0.489186 26.6605 -4.23202e-07 25.4558 -4.23202e-07C24.2511 -4.23202e-07 23.0957 0.489186 22.2439 1.35996L1.33234 22.736C0.909993 23.1668 0.574919 23.6786 0.346298 24.242C0.117677 24.8054 1.43752e-06 25.4093 1.43752e-06 26.0192C1.43752e-06 26.6292 0.117677 27.2331 0.346298 27.7965C0.574919 28.3599 0.909993 28.8716 1.33234 29.3025L22.2439 50.6785C23.9751 52.4482 26.8909 52.4482 28.6677 50.6319Z" fill="#C4C4C4"/>
</svg>
