<svg width="60" height="104" viewBox="0 0 60 104" fill="none" xmlns="http://www.w3.org/2000/svg">
<path d="M57.3353 101.264C58.18 100.402 58.8502 99.3786 59.3074 98.2519C59.7646 97.1251 60 95.9172 60 94.6974C60 93.4775 59.7646 92.2696 59.3074 91.1428C58.8502 90.0161 58.18 88.9926 57.3353 88.1309L21.9816 51.9919L57.3353 15.8529C59.039 14.1114 59.9961 11.7493 59.9961 9.28642C59.9961 6.82351 59.039 4.46145 57.3353 2.71991C55.6316 0.978371 53.3209 -8.46405e-07 50.9115 -8.46405e-07C48.5021 -8.46405e-07 46.1914 0.978371 44.4877 2.71991L2.66468 45.472C1.81999 46.3337 1.14984 47.3572 0.692595 48.4839C0.235353 49.6107 2.87503e-06 50.8186 2.87503e-06 52.0385C2.87503e-06 53.2583 0.235353 54.4662 0.692595 55.593C1.14984 56.7197 1.81999 57.7433 2.66468 58.6049L44.4877 101.357C47.9502 104.896 53.7817 104.896 57.3353 101.264Z" fill="#C4C4C4"/>
</svg>
