<svg width="50" height="29" viewBox="0 0 50 29" fill="none" xmlns="http://www.w3.org/2000/svg">
<path d="M1.31546 27.7121C1.72973 28.1203 2.22181 28.4442 2.76352 28.6652C3.30524 28.8862 3.88595 29 4.47242 29C5.0589 29 5.63961 28.8862 6.18132 28.6652C6.72304 28.4442 7.21512 28.1203 7.62939 27.7121L25.0039 10.6245L42.3784 27.7121C43.2157 28.5355 44.3513 28.9981 45.5354 28.9981C46.7195 28.9981 47.8551 28.5355 48.6923 27.7121C49.5296 26.8886 50 25.7718 50 24.6072C50 23.4427 49.5296 22.3258 48.6923 21.5024L28.1385 1.28793C27.7242 0.879658 27.2321 0.555753 26.6904 0.334753C26.1487 0.113752 25.568 -2.85025e-07 24.9815 -2.85025e-07C24.395 -2.85025e-07 23.8143 0.113752 23.2726 0.334753C22.7309 0.555753 22.2388 0.879658 21.8245 1.28793L1.27068 21.5024C-0.43095 23.1759 -0.430949 25.9945 1.31546 27.7121Z" fill="#C4C4C4"/>
</svg>
