<svg width="121" height="86" viewBox="0 0 121 86" fill="none" xmlns="http://www.w3.org/2000/svg">
<path d="M3 13C3 13 10.6991 3 28.6637 3C46.6283 3 54.3274 13 54.3274 13V83C54.3274 83 46.6283 78 28.6637 78C10.6991 78 3 83 3 83V13ZM54.3274 13C54.3274 13 62.0265 3 79.9912 3C97.9558 3 105.655 13 105.655 13V83C105.655 83 97.9558 78 79.9912 78C62.0265 78 54.3274 83 54.3274 83V13Z" stroke="white" stroke-width="6" stroke-linecap="round" stroke-linejoin="round"/>
<path d="M105.8 26.4283L112.399 32.8575" stroke="white" stroke-width="3" stroke-linecap="round" stroke-linejoin="round"/>
<path d="M88.2031 50H94.8021L119 26.4284L112.4 20L88.2031 43.5716V50Z" stroke="white" stroke-width="3" stroke-linejoin="round"/>
</svg>
