<svg width="119" height="82" viewBox="0 0 119 82" fill="none" xmlns="http://www.w3.org/2000/svg">
<path d="M1 11C1 11 8.69912 1 26.6637 1C44.6283 1 52.3274 11 52.3274 11V81C52.3274 81 44.6283 76 26.6637 76C8.69912 76 1 81 1 81V11ZM52.3274 11C52.3274 11 60.0265 1 77.9912 1C95.9558 1 103.655 11 103.655 11V81C103.655 81 95.9558 76 77.9912 76C60.0265 76 52.3274 81 52.3274 81V11Z" stroke="white" stroke-width="2" stroke-linecap="round" stroke-linejoin="round"/>
<path d="M86.2031 48H92.8021L117 24.4284L110.4 18L86.2031 41.5716V48Z" stroke="white" stroke-width="3" stroke-linejoin="round"/>
<path d="M103.8 24.4283L110.399 30.8575" stroke="white" stroke-width="3" stroke-linecap="round" stroke-linejoin="round"/>
</svg>
